<?xml version="1.0" standalone="no"?>
<!DOCTYPE svg PUBLIC "-//W3C//DTD SVG 20010904//EN"
 "http://www.w3.org/TR/2001/REC-SVG-20010904/DTD/svg10.dtd">
<svg version="1.0" xmlns="http://www.w3.org/2000/svg"
 width="1300.000000pt" height="1300.000000pt" viewBox="0 0 1300.000000 1300.000000"
 preserveAspectRatio="xMidYMid meet">

<g transform="translate(0.000000,1300.000000) scale(0.100000,-0.100000)"
fill="#000000" stroke="none">
<path d="M10324 10782 c-86 -41 -160 -163 -218 -359 -104 -349 -146 -808 -146
-1588 l0 -430 -63 -34 c-323 -177 -703 -478 -968 -766 -483 -527 -751 -1100
-820 -1755 -15 -143 -6 -459 16 -555 21 -94 72 -248 103 -310 173 -345 514
-587 1006 -714 168 -43 452 -80 619 -81 l88 0 -5 -548 c-5 -483 -8 -561 -25
-663 -30 -175 -69 -273 -138 -350 -62 -69 -102 -84 -218 -83 -114 0 -190 25
-269 85 -36 28 -116 125 -116 142 0 2 19 7 42 11 58 10 152 62 194 109 20 22
48 65 63 96 22 48 26 69 26 151 0 84 -3 101 -28 148 -67 128 -165 192 -304
200 -136 7 -241 -43 -313 -150 -51 -77 -65 -124 -63 -225 4 -259 129 -550 301
-704 143 -128 373 -203 594 -194 274 12 473 199 558 524 44 169 44 175 50 864
l5 667 108 50 c414 188 687 534 737 932 63 507 -150 931 -570 1132 -38 18
-115 48 -171 67 l-102 33 6 270 c4 148 7 454 8 680 l0 411 65 50 c90 69 252
232 338 340 236 295 309 528 308 980 0 404 -70 792 -201 1115 -140 344 -339
526 -497 452z m365 -631 c46 -49 83 -139 115 -277 66 -288 80 -647 30 -775
-47 -118 -144 -244 -273 -353 -70 -59 -252 -190 -256 -183 -1 1 2 191 6 422 6
351 10 442 28 555 47 306 143 540 255 628 39 30 53 28 95 -17z m-753 -2572
c-3 -17 -6 -275 -6 -573 l0 -541 -77 -18 c-190 -43 -368 -143 -519 -292 -216
-212 -314 -439 -314 -723 0 -224 46 -378 162 -534 82 -112 241 -218 389 -262
29 -9 55 -16 58 -16 3 0 -27 29 -66 65 -128 117 -226 265 -283 427 -32 91 -39
270 -15 369 50 208 190 381 380 470 76 35 203 69 260 69 l26 0 -7 -817 c-4
-450 -9 -820 -11 -823 -12 -13 -373 -2 -460 14 -333 61 -625 208 -801 405
-172 192 -268 431 -292 726 -32 395 91 784 353 1115 236 299 532 540 1117 914
102 65 115 68 106 25z m431 -1604 c250 -59 423 -240 478 -500 20 -94 19 -295
-1 -393 -47 -230 -187 -427 -383 -540 -71 -41 -167 -81 -174 -72 -6 9 5 1520
12 1520 3 0 34 -7 68 -15z"/>
<path d="M5960 10594 c-223 -15 -431 -40 -579 -70 -916 -186 -1702 -642 -2315
-1344 -512 -586 -857 -1348 -960 -2120 -192 -1430 360 -2826 1476 -3739 64
-53 136 -110 160 -127 618 -442 1253 -688 1989 -770 191 -22 660 -25 824 -6
576 67 987 186 1460 424 186 94 513 293 543 331 5 7 17 45 26 85 54 247 263
428 516 449 l75 6 69 79 c81 92 176 210 176 218 0 3 -15 7 -32 8 -50 4 -301
68 -413 105 -435 146 -770 420 -940 771 -150 308 -189 684 -119 1136 109 704
450 1338 1015 1885 147 142 256 233 494 411 28 21 106 74 175 117 69 44 126
81 128 82 5 4 -116 201 -180 293 -592 847 -1425 1424 -2403 1662 -212 52 -297
67 -500 91 -161 18 -554 32 -685 23z m534 -436 c162 -19 367 -51 448 -69 124
-27 312 -79 321 -88 7 -7 -14 -107 -138 -636 -24 -104 -74 -318 -110 -475 -81
-354 -136 -584 -139 -588 -2 -1 -33 9 -69 23 -188 70 -398 105 -640 105 -240
0 -371 -20 -581 -87 -59 -19 -112 -31 -116 -26 -8 9 -43 149 -270 1103 -33
140 -78 327 -100 415 -21 88 -36 163 -32 166 10 9 179 55 307 84 124 28 340
60 490 74 122 11 531 10 629 -1z m-34 -2288 c505 -106 929 -507 1058 -1000 39
-150 47 -213 46 -380 -1 -140 -5 -183 -28 -284 -122 -546 -541 -964 -1077
-1076 -372 -77 -756 -3 -1072 207 -127 83 -299 254 -378 373 -161 243 -228
454 -236 747 -8 235 28 426 115 616 76 167 154 280 292 417 225 226 506 363
830 404 90 11 348 -2 450 -24z m-935 -3195 c90 -34 293 -83 395 -95 109 -13
382 -13 490 0 109 14 282 55 389 92 46 16 87 26 91 21 4 -4 19 -57 33 -118 28
-117 114 -479 198 -835 28 -118 77 -324 110 -458 32 -134 59 -251 59 -261 0
-30 -282 -103 -580 -152 -114 -19 -187 -23 -475 -26 -369 -5 -496 4 -760 52
-112 21 -423 100 -434 110 -2 2 38 172 88 377 51 205 128 519 172 698 111 454
153 620 156 620 1 0 32 -11 68 -25z"/>
<path d="M5955 7625 c-122 -22 -289 -88 -400 -158 -292 -183 -493 -513 -525
-862 -50 -530 270 -1020 777 -1191 115 -39 212 -53 359 -54 195 0 330 30 507
115 498 238 754 833 585 1365 -128 404 -467 706 -881 785 -97 18 -323 19 -422
0z m384 -325 c158 -32 305 -114 417 -231 159 -167 228 -342 227 -574 -1 -134
-22 -234 -73 -342 -107 -230 -325 -402 -571 -453 -378 -78 -745 101 -910 445
-62 128 -74 188 -74 360 0 129 4 161 24 225 129 418 534 658 960 570z"/>
</g>
</svg>
